<mxfile host="app.diagrams.net" modified="2022-07-07T13:00:19.501Z" agent="5.0 (Windows NT 10.0; Win64; x64) AppleWebKit/537.36 (KHTML, like Gecko) Chrome/103.0.5060.66 Safari/537.36 Edg/103.0.1264.44" etag="84oD8Nc76PPfpsdeDh-y" version="20.0.4" type="github">
  <diagram id="L7o0yl-27-Rp-Ire01vD" name="第 1 页">
    <mxGraphModel dx="731" dy="396" grid="1" gridSize="10" guides="1" tooltips="1" connect="1" arrows="1" fold="1" page="1" pageScale="1" pageWidth="827" pageHeight="1169" math="0" shadow="0">
      <root>
        <mxCell id="0" />
        <mxCell id="1" parent="0" />
        <mxCell id="ocCAuHk5jpmS6nwCMQQG-5" style="edgeStyle=orthogonalEdgeStyle;rounded=0;orthogonalLoop=1;jettySize=auto;html=1;entryX=0;entryY=0.5;entryDx=0;entryDy=0;" edge="1" parent="1" source="ocCAuHk5jpmS6nwCMQQG-1" target="ocCAuHk5jpmS6nwCMQQG-2">
          <mxGeometry relative="1" as="geometry" />
        </mxCell>
        <mxCell id="ocCAuHk5jpmS6nwCMQQG-1" value="输入" style="rounded=0;whiteSpace=wrap;html=1;flipH=1;" vertex="1" parent="1">
          <mxGeometry x="80" y="170" width="20" height="100" as="geometry" />
        </mxCell>
        <mxCell id="ocCAuHk5jpmS6nwCMQQG-6" style="edgeStyle=orthogonalEdgeStyle;rounded=0;orthogonalLoop=1;jettySize=auto;html=1;" edge="1" parent="1" source="ocCAuHk5jpmS6nwCMQQG-2" target="ocCAuHk5jpmS6nwCMQQG-3">
          <mxGeometry relative="1" as="geometry" />
        </mxCell>
        <mxCell id="ocCAuHk5jpmS6nwCMQQG-2" value="卷积层" style="rounded=0;whiteSpace=wrap;html=1;fillColor=#dae8fc;strokeColor=#6c8ebf;flipH=1;" vertex="1" parent="1">
          <mxGeometry x="140" y="170" width="20" height="100" as="geometry" />
        </mxCell>
        <mxCell id="ocCAuHk5jpmS6nwCMQQG-8" style="edgeStyle=orthogonalEdgeStyle;rounded=0;orthogonalLoop=1;jettySize=auto;html=1;entryX=0;entryY=0.5;entryDx=0;entryDy=0;" edge="1" parent="1" source="ocCAuHk5jpmS6nwCMQQG-3" target="ocCAuHk5jpmS6nwCMQQG-4">
          <mxGeometry relative="1" as="geometry" />
        </mxCell>
        <mxCell id="ocCAuHk5jpmS6nwCMQQG-3" value="稠密&lt;br&gt;卷积块" style="rounded=0;whiteSpace=wrap;html=1;fillColor=#f8cecc;strokeColor=#b85450;flipH=1;" vertex="1" parent="1">
          <mxGeometry x="200" y="170" width="20" height="100" as="geometry" />
        </mxCell>
        <mxCell id="ocCAuHk5jpmS6nwCMQQG-14" style="edgeStyle=orthogonalEdgeStyle;rounded=0;orthogonalLoop=1;jettySize=auto;html=1;" edge="1" parent="1" source="ocCAuHk5jpmS6nwCMQQG-4" target="ocCAuHk5jpmS6nwCMQQG-9">
          <mxGeometry relative="1" as="geometry" />
        </mxCell>
        <mxCell id="ocCAuHk5jpmS6nwCMQQG-15" style="edgeStyle=orthogonalEdgeStyle;rounded=0;orthogonalLoop=1;jettySize=auto;html=1;" edge="1" parent="1" source="ocCAuHk5jpmS6nwCMQQG-4" target="ocCAuHk5jpmS6nwCMQQG-11">
          <mxGeometry relative="1" as="geometry" />
        </mxCell>
        <mxCell id="ocCAuHk5jpmS6nwCMQQG-4" value="稠密&lt;br&gt;卷积块" style="rounded=0;whiteSpace=wrap;html=1;fillColor=#f8cecc;strokeColor=#b85450;flipH=1;" vertex="1" parent="1">
          <mxGeometry x="250" y="170" width="20" height="100" as="geometry" />
        </mxCell>
        <mxCell id="ocCAuHk5jpmS6nwCMQQG-18" style="edgeStyle=orthogonalEdgeStyle;rounded=0;orthogonalLoop=1;jettySize=auto;html=1;entryX=0;entryY=0.5;entryDx=0;entryDy=0;" edge="1" parent="1" source="ocCAuHk5jpmS6nwCMQQG-9" target="ocCAuHk5jpmS6nwCMQQG-10">
          <mxGeometry relative="1" as="geometry" />
        </mxCell>
        <mxCell id="ocCAuHk5jpmS6nwCMQQG-9" value="卷积层" style="rounded=0;whiteSpace=wrap;html=1;fillColor=#dae8fc;strokeColor=#6c8ebf;flipH=1;" vertex="1" parent="1">
          <mxGeometry x="310" y="90" width="20" height="100" as="geometry" />
        </mxCell>
        <mxCell id="ocCAuHk5jpmS6nwCMQQG-19" style="edgeStyle=orthogonalEdgeStyle;rounded=0;orthogonalLoop=1;jettySize=auto;html=1;" edge="1" parent="1" source="ocCAuHk5jpmS6nwCMQQG-10" target="ocCAuHk5jpmS6nwCMQQG-20">
          <mxGeometry relative="1" as="geometry">
            <mxPoint x="440" y="140" as="targetPoint" />
          </mxGeometry>
        </mxCell>
        <mxCell id="ocCAuHk5jpmS6nwCMQQG-10" value="卷积层" style="rounded=0;whiteSpace=wrap;html=1;fillColor=#dae8fc;strokeColor=#6c8ebf;flipH=1;" vertex="1" parent="1">
          <mxGeometry x="360" y="90" width="20" height="100" as="geometry" />
        </mxCell>
        <mxCell id="ocCAuHk5jpmS6nwCMQQG-16" style="edgeStyle=orthogonalEdgeStyle;rounded=0;orthogonalLoop=1;jettySize=auto;html=1;" edge="1" parent="1" source="ocCAuHk5jpmS6nwCMQQG-11" target="ocCAuHk5jpmS6nwCMQQG-12">
          <mxGeometry relative="1" as="geometry" />
        </mxCell>
        <mxCell id="ocCAuHk5jpmS6nwCMQQG-11" value="卷积层" style="rounded=0;whiteSpace=wrap;html=1;fillColor=#dae8fc;strokeColor=#6c8ebf;flipH=1;" vertex="1" parent="1">
          <mxGeometry x="308.25" y="230" width="20" height="100" as="geometry" />
        </mxCell>
        <mxCell id="ocCAuHk5jpmS6nwCMQQG-17" style="edgeStyle=orthogonalEdgeStyle;rounded=0;orthogonalLoop=1;jettySize=auto;html=1;" edge="1" parent="1" source="ocCAuHk5jpmS6nwCMQQG-12" target="ocCAuHk5jpmS6nwCMQQG-13">
          <mxGeometry relative="1" as="geometry" />
        </mxCell>
        <mxCell id="ocCAuHk5jpmS6nwCMQQG-12" value="全连接层" style="rounded=0;whiteSpace=wrap;html=1;fillColor=#d5e8d4;strokeColor=#82b366;flipH=1;" vertex="1" parent="1">
          <mxGeometry x="358.25" y="230" width="20" height="100" as="geometry" />
        </mxCell>
        <mxCell id="ocCAuHk5jpmS6nwCMQQG-24" style="edgeStyle=orthogonalEdgeStyle;rounded=0;orthogonalLoop=1;jettySize=auto;html=1;entryX=0;entryY=0.5;entryDx=0;entryDy=0;" edge="1" parent="1" source="ocCAuHk5jpmS6nwCMQQG-13" target="ocCAuHk5jpmS6nwCMQQG-21">
          <mxGeometry relative="1" as="geometry" />
        </mxCell>
        <mxCell id="ocCAuHk5jpmS6nwCMQQG-13" value="全连接层" style="rounded=0;whiteSpace=wrap;html=1;fillColor=#d5e8d4;strokeColor=#82b366;flipH=1;" vertex="1" parent="1">
          <mxGeometry x="411.75" y="230" width="20" height="100" as="geometry" />
        </mxCell>
        <mxCell id="ocCAuHk5jpmS6nwCMQQG-20" value="策略输出" style="text;html=1;strokeColor=#23445d;fillColor=#bac8d3;align=center;verticalAlign=middle;whiteSpace=wrap;rounded=1;" vertex="1" parent="1">
          <mxGeometry x="470" y="125" width="60" height="30" as="geometry" />
        </mxCell>
        <mxCell id="ocCAuHk5jpmS6nwCMQQG-21" value="价值输出" style="text;html=1;strokeColor=#23445d;fillColor=#bac8d3;align=center;verticalAlign=middle;whiteSpace=wrap;rounded=1;glass=0;shadow=0;" vertex="1" parent="1">
          <mxGeometry x="470" y="265" width="60" height="30" as="geometry" />
        </mxCell>
      </root>
    </mxGraphModel>
  </diagram>
</mxfile>
